<svg width="24" height="24" viewBox="0 0 24 24" fill="none" xmlns="http://www.w3.org/2000/svg">
<path d="M12 3C12.8476 3 13.6762 3.24926 14.381 3.71625C15.0858 4.18325 15.6351 4.84701 15.9595 5.6236C16.2839 6.40018 16.3687 7.25471 16.2034 8.07913C16.038 8.90355 15.6298 9.66083 15.0305 10.2552C14.4311 10.8496 13.6674 11.2544 12.8361 11.4183C12.0048 11.5823 11.143 11.4982 10.3599 11.1765C9.57682 10.8548 8.90748 10.3101 8.43656 9.61117C7.96564 8.91226 7.71429 8.09057 7.71429 7.25L7.71857 7.06555C7.7665 5.97139 8.23852 4.93781 9.03619 4.18036C9.83386 3.42291 10.8956 3.00006 12 3ZM13.7143 13.2C14.8509 13.2 15.941 13.6478 16.7447 14.4448C17.5485 15.2418 18 16.3228 18 17.45V18.3C18 18.7509 17.8194 19.1833 17.4979 19.5021C17.1764 19.8209 16.7404 20 16.2857 20H7.71429C7.25963 20 6.82359 19.8209 6.5021 19.5021C6.18061 19.1833 6 18.7509 6 18.3V17.45C6 16.3228 6.45153 15.2418 7.25526 14.4448C8.05898 13.6478 9.14907 13.2 10.2857 13.2H13.7143Z" fill="#F0D06A"/>
</svg>
