<svg width="24" height="24" viewBox="0 0 24 24" fill="none" xmlns="http://www.w3.org/2000/svg">
<path d="M7.75 13.25H9.25V14.75H7.75V13.25ZM7.75 8.75H12.25V10.25H7.75V8.75ZM5.5 5H17.5V6.5H5.5V5ZM5.5 18.5H17.5V20H5.5V18.5ZM4 18.5V6.5H5.5V18.5H4ZM17.5 18.5V6.5H19V18.5H17.5ZM7.75 11.75H12.25V13.25H7.75V11.75ZM10.75 10.25H12.25V11.75H10.75V10.25ZM7.75 10.25H9.25V11.75H7.75V10.25ZM12.25 13.25H13.75V14.75H12.25V13.25ZM13.75 11.75H15.25V13.25H13.75V11.75ZM13.75 14.75H15.25V16.25H13.75V14.75ZM10.75 14.75H12.25V16.25H10.75V14.75Z" fill="#F0D06A"/>
</svg>
